<?xml version="1.0" encoding="UTF-8"?> <svg xmlns="http://www.w3.org/2000/svg" xmlns:xlink="http://www.w3.org/1999/xlink" version="1.1" id="Layer_1" x="0px" y="0px" viewBox="0 0 192.4 33.6" style="enable-background:new 0 0 192.4 33.6;" xml:space="preserve"> <style type="text/css"> .st0{fill:#FFFFFF;} </style> <g> <path class="st0" d="M32,22c-0.1,0-0.2,0-0.3,0c-0.6-0.2-1-0.8-0.8-1.4C32.8,13.4,29,5.9,22,3.3c-0.6-0.2-0.9-0.9-0.7-1.5 s0.9-0.9,1.5-0.7c8.1,3,12.6,11.7,10.4,20.1C33,21.7,32.5,22,32,22z"></path> <path class="st0" d="M3.2,25.7c-0.4,0-0.8-0.2-1-0.6C-2.4,17,0.5,6.7,8.6,2.2c1.1-0.6,2.3-1.1,3.5-1.5c0.6-0.2,1.3,0.2,1.5,0.8 S13.4,2.8,12.8,3c-3,0.9-5.6,2.7-7.4,5.1c-3.6,4.6-4,10.8-1.2,15.8c0.3,0.6,0.1,1.3-0.4,1.6C3.6,25.6,3.4,25.7,3.2,25.7z"></path> <path class="st0" d="M16.9,33.6c-2.5,0-5-0.5-7.2-1.6c-0.6-0.3-0.8-1-0.4-1.6c0.3-0.5,0.9-0.7,1.4-0.5c5.2,2.5,11.4,1.6,15.8-2.2 c0.5-0.4,1.2-0.4,1.7,0.1c0.4,0.5,0.4,1.2-0.1,1.7l0,0C24.9,32.2,21,33.6,16.9,33.6z"></path> <path class="st0" d="M16.9,28.5c-6.5,0-11.7-5.3-11.7-11.7c0-0.8,0.1-1.7,0.3-2.5c0.2-0.6,0.8-1,1.4-0.8c0.6,0.2,1,0.8,0.9,1.4 c-1.1,5,2,10,7,11.1s10-2,11.1-7s-2-10-7-11.1c-0.7-0.2-1.4-0.2-2-0.2c-1.4,0-2.8,0.3-4.1,1c-0.6,0.3-1.3,0-1.6-0.5 c-0.3-0.6,0-1.3,0.5-1.6l0,0c1.6-0.8,3.4-1.2,5.2-1.2c6.4,0,11.7,5.2,11.7,11.7S23.3,28.5,16.9,28.5L16.9,28.5z"></path> <path class="st0" d="M16.9,22.9c-3.4,0-6.1-2.7-6.1-6.1s2.7-6.1,6.1-6.1s6.1,2.7,6.1,6.1l0,0C23,20.2,20.2,22.9,16.9,22.9z M16.9,13.1c-2.1,0-3.8,1.7-3.8,3.8s1.7,3.8,3.8,3.8s3.8-1.7,3.8-3.8C20.6,14.7,18.9,13.1,16.9,13.1z"></path> <circle class="st0" cx="6" cy="28.2" r="1.2"></circle> <circle class="st0" cx="30.3" cy="25.2" r="1.2"></circle> <circle class="st0" cx="8.4" cy="10.3" r="1.2"></circle> <circle class="st0" cx="17.3" cy="1.2" r="1.2"></circle> <circle class="st0" cx="17" cy="16.8" r="1.2"></circle> <path class="st0" d="M75.3,16.7c0,3.8-2.2,6.1-5.8,6.1c-3.6,0-5.8-2.3-5.8-6.1s2.2-6.1,5.8-6.1C73.2,10.6,75.3,12.9,75.3,16.7z M66.2,16.7c0,2.6,1.2,4.1,3.3,4.1s3.3-1.5,3.3-4.1c0-2.6-1.2-4.1-3.3-4.1S66.2,14,66.2,16.7L66.2,16.7z"></path> <path class="st0" d="M88.6,16.7c0,3.8-2.2,6.1-5.8,6.1c-3.6,0-5.8-2.3-5.8-6.1s2.2-6.1,5.8-6.1C86.5,10.6,88.6,12.9,88.6,16.7z M79.6,16.7c0,2.6,1.2,4.1,3.3,4.1c2.1,0,3.3-1.5,3.3-4.1c0-2.6-1.2-4.1-3.3-4.1C80.7,12.6,79.6,14,79.6,16.7z"></path> <path class="st0" d="M54.6,16.7c0,3.8-2,6-5.2,6c-1.9,0-3.3-1-4-2.4v1c0,0.6-0.5,1.2-1.2,1.2l0,0c-0.6,0-1.2-0.5-1.2-1.2V6.8 c0-0.7,0.6-1.2,1.2-1.2l0,0l0,0c0.7,0,1.2,0.6,1.2,1.2v5.9c0.7-1.3,2-2.1,3.8-2.1C52.6,10.6,54.6,12.9,54.6,16.7z M52.1,16.7 c0-2.5-1.2-4-3.2-4s-3.2,1.5-3.2,3.9v0.2c0,2.4,1.3,3.9,3.2,3.9C50.9,20.7,52.1,19.2,52.1,16.7L52.1,16.7z"></path> <path class="st0" d="M62.3,20.1c0.2,0.1,0.3,0.4,0.2,0.6c0,0-0.4,2-2.6,2c-3,0-3-2.3-3-3.1V6.8c0-0.7,0.6-1.2,1.2-1.2 c0.7,0,1.2,0.6,1.2,1.2v10.8c0,0,0,2.1,0.1,2.5c0.2,0.4,0.6,0.5,1,0.5s0.8-0.2,1-0.5C61.7,19.9,62,19.9,62.3,20.1z"></path> <path class="st0" d="M105.6,10.6c-1.6,0-3.3,0.7-4,2.3c-0.7-1.6-2.3-2.3-3.9-2.3s-3,0.8-3.8,2.2c-0.4-1.3-1.2-2.2-2.8-2.2 c-1.5,0-1.9,0.6-1.9,1.2c0,0.4,0.3,0.8,0.7,0.8c0.5,0.1,0.9-0.2,1.3,0.1c0.2,0.2,0.3,0.6,0.3,0.8v7.8c0,0.7,0.6,1.2,1.2,1.2 s1.2-0.6,1.2-1.2l0,0v-5c0-2.6,1.6-3.6,3-3.6s2.4,0.8,2.4,2.7v5.9c0,0.7,0.6,1.2,1.2,1.2l0,0c0.7,0,1.2-0.6,1.2-1.2l0,0v-5.1 c0-2.3,1.4-3.5,3-3.5c1.4,0,2.4,0.8,2.4,2.7v5.9c0,0.7,0.6,1.2,1.2,1.2c0.7,0,1.2-0.6,1.2-1.2V15C109.9,12,107.8,10.6,105.6,10.6z"></path> <path class="st0" d="M137.1,11.9L137.1,11.9c-0.1,0.6-0.6,0.9-1.2,0.9c-2.3,0-3.4,2.2-3.4,3.5v4.9c0,0.7-0.6,1.2-1.2,1.2l0,0 c-0.7,0-1.2-0.6-1.2-1.2v-9.3c0-0.6,0.5-1.1,1.1-1.1l0,0l0,0c0.6,0,1,0.4,1.1,1l0.1,1.1c0.6-1.5,1.9-2.3,3.7-2.3l0,0 c0.6,0,1.1,0.5,1.1,1.1C137.1,11.8,137.1,11.9,137.1,11.9z"></path> <path class="st0" d="M149.4,16.7c0,3.8-2.2,6.1-5.8,6.1s-5.8-2.3-5.8-6.1s2.2-6.1,5.8-6.1C147.2,10.6,149.4,12.9,149.4,16.7z M140.3,16.7c0,2.6,1.2,4.1,3.3,4.1s3.3-1.5,3.3-4.1c0-2.6-1.2-4.1-3.3-4.1S140.3,14,140.3,16.7z"></path> <path class="st0" d="M168.9,12.5l-2.9,8.7c-0.3,0.8-1,1.3-1.8,1.3l0,0c-0.8,0-1.5-0.5-1.8-1.3l-2.5-7.5l-2.4,7.5 c-0.2,0.8-1,1.3-1.8,1.3l0,0c-0.8,0-1.5-0.5-1.8-1.3l-2.9-8.7c-0.2-0.7,0.1-1.4,0.8-1.6c0.1,0,0.3-0.1,0.4-0.1l0,0 c0.6,0,1.1,0.4,1.2,0.9l2.4,8.4l2.5-8.1c0.2-0.7,0.9-1.2,1.6-1.2l0,0c0.7,0,1.4,0.5,1.6,1.2l2.5,8.1l2.4-8.4 c0.2-0.5,0.7-0.9,1.2-0.9l0,0c0.7,0,1.3,0.6,1.3,1.3C168.9,12.2,168.9,12.4,168.9,12.5z"></path> <path class="st0" d="M179.3,21.1c0.1,0.4,0,0.9-0.4,1.1c-0.8,0.4-1.6,0.6-2.4,0.6c-2,0-3.5-0.9-3.6-3.3v-6.7h-1.2c-0.5,0-1-0.4-1-1 l0,0l0,0c0-0.5,0.4-1,1-1l0,0h1.2V6.9c0-0.6,0.4-1,0.9-1.2l0,0c0.7-0.2,1.4,0.2,1.5,0.9c0,0.1,0,0.2,0,0.3v3.9h3.1c0.5,0,1,0.4,1,1 l0,0l0,0c0,0.5-0.4,1-1,1l0,0h-3.1V19c0,1.1,0.7,1.7,1.7,1.7c0.4,0,0.7-0.1,1-0.2C178.6,20.3,179.1,20.5,179.3,21.1 C179.3,21,179.3,21,179.3,21.1L179.3,21.1z"></path> <path class="st0" d="M192.4,14.9v6.5c0,0.7-0.6,1.2-1.2,1.2l0,0l0,0c-0.7,0-1.2-0.6-1.2-1.2l0,0v-5.7c0-2.3-1.1-3.1-2.5-3.1 c-1.5,0-3.2,1-3.2,3.7v4.9c0,0.7-0.6,1.2-1.2,1.2l0,0c-0.7,0-1.2-0.6-1.2-1.2V6.9c0-0.7,0.6-1.2,1.2-1.2l0,0c0.7,0,1.2,0.6,1.2,1.2 v5.9c0.8-1.4,2.1-2.1,3.8-2.1C190.5,10.6,192.4,12,192.4,14.9z"></path> <path class="st0" d="M124.3,20.7h-3.9c-0.9,0-1.4-0.4-1.4-1.1s0.3-1.1,1.1-1.3c0.6,0.1,1.3,0.2,1.9,0.2c3.1,0,5.1-1.6,5.1-3.9 c0-1.1-0.5-2.2-1.4-2.8c0-0.6,0.3-1.1,0.8-1.1c0.1,0,0.1,0,0.2,0c0.3,0.1,0.6-0.2,0.7-0.5c0-0.2,0-0.3-0.1-0.4l0,0 c-0.3-0.4-0.8-0.5-1.2-0.5l0,0c-1.2,0-1.9,0.5-2,1.7c-0.6-0.2-1.3-0.3-2-0.3c-3,0-5.1,1.6-5.1,3.9c0,1.4,0.6,2.5,1.8,3.2 c-1.1,0.4-1.8,1.1-1.8,2.3c0,1.1,0.7,1.8,1.6,2.2c-1.3,0.3-2.1,1.2-2.1,2.2s0.5,1.8,1.7,2.3c0.9,0.4,2.2,0.6,3.8,0.6 c3.4,0,6-1.4,6-3.8C128,21.8,126.7,20.7,124.3,20.7z M122,12.4c1.4,0,2.5,0.9,2.5,2.2c0,1.3-1.1,2.2-2.5,2.2s-2.5-0.9-2.5-2.2 C119.5,13.2,120.6,12.4,122,12.4L122,12.4z M122.3,25.6c-0.8,0-1.6-0.1-2.4-0.3c-0.8-0.3-1.3-0.7-1.3-1.3c0-0.8,0.7-1.2,2.1-1.2 h3.1c1.5,0,2,0.4,2,1.2C125.9,24.8,124.7,25.6,122.3,25.6z"></path> </g> </svg> 